{
  "accessors": [
    {
      "bufferView": 2,
      "componentType": 5126,
      "count": 65532,
      "max": [
        2.1998209953308105,
        3.43961501121521,
        2.829514980316162
      ],
      "min": [
        -1.9275779724121094,
        -3.5092110633850098,
        -0.6879429817199707
      ],
      "type": "VEC3"
    },
    {
      "bufferView": 2,
      "byteOffset": 786384,
      "componentType": 5126,
      "count": 65532,
      "max": [
        0.999990701675415,
        0.9997616410255432,
        0.9999929666519165
      ],
      "min": [
        -0.9999680519104004,
        -0.9998180270195007,
        -0.9999982118606567
      ],
      "type": "VEC3"
    },
    {
      "bufferView": 1,
      "componentType": 5126,
      "count": 65532,
      "max": [
        0.875,
        1.0
      ],
      "min": [
        0.375,
        0.0
      ],
      "type": "VEC2"
    },
    {
      "bufferView": 0,
      "componentType": 5125,
      "count": 98298,
      "type": "SCALAR"
    },
    {
      "bufferView": 2,
      "byteOffset": 1572768,
      "componentType": 5126,
      "count": 4516,
      "max": [
        2.2000069618225098,
        1.0816479921340942,
        2.8294479846954346
      ],
      "min": [
        0.8097469806671143,
        -0.7645450234413147,
        2.417435884475708
      ],
      "type": "VEC3"
    },
    {
      "bufferView": 2,
      "byteOffset": 1626960,
      "componentType": 5126,
      "count": 4516,
      "max": [
        0.8761914372444153,
        0.6140905618667603,
        0.9423147439956665
      ],
      "min": [
        -0.8756073713302612,
        -0.6139057278633118,
        -0.9423844814300537
      ],
      "type": "VEC3"
    },
    {
      "bufferView": 1,
      "byteOffset": 524256,
      "componentType": 5126,
      "count": 4516,
      "max": [
        0.859375,
        0.6524389982223511
      ],
      "min": [
        0.625,
        0.5853660106658936
      ],
      "type": "VEC2"
    },
    {
      "bufferView": 0,
      "byteOffset": 393192,
      "componentType": 5125,
      "count": 6774,
      "type": "SCALAR"
    },
    {
      "bufferView": 2,
      "byteOffset": 1681152,
      "componentType": 5126,
      "count": 448,
      "max": [
        2.22792911529541,
        3.471127986907959,
        2.8793580532073975
      ],
      "min": [
        2.047929048538208,
        -3.516771078109741,
        -0.6934019923210144
      ],
      "type": "VEC3"
    },
    {
      "bufferView": 2,
      "byteOffset": 1686528,
      "componentType": 5126,
      "count": 448,
      "max": [
        0.9937171936035156,
        0.996557891368866,
        0.9975467324256897
      ],
      "min": [
        -0.9937171936035156,
        -0.9965566992759705,
        -1.0
      ],
      "type": "VEC3"
    },
    {
      "bufferView": 1,
      "byteOffset": 560384,
      "componentType": 5126,
      "count": 448,
      "max": [
        1.0,
        1.0
      ],
      "min": [
        0.0,
        0.009999999776482582
      ],
      "type": "VEC2"
    },
    {
      "bufferView": 0,
      "byteOffset": 420288,
      "componentType": 5125,
      "count": 756,
      "type": "SCALAR"
    },
    {
      "bufferView": 2,
      "byteOffset": 1691904,
      "componentType": 5126,
      "count": 192,
      "max": [
        2.1231091022491455,
        3.5161690711975098,
        -0.5617420077323914
      ],
      "min": [
        -1.8203790187835693,
        3.3285229206085205,
        -0.704587996006012
      ],
      "type": "VEC3"
    },
    {
      "bufferView": 2,
      "byteOffset": 1694208,
      "componentType": 5126,
      "count": 192,
      "max": [
        1.0,
        0.9951391816139221,
        0.9951616525650024
      ],
      "min": [
        -0.9909000992774963,
        -0.9951298236846924,
        -0.9951616525650024
      ],
      "type": "VEC3"
    },
    {
      "bufferView": 1,
      "byteOffset": 563968,
      "componentType": 5126,
      "count": 192,
      "max": [
        1.0,
        1.0
      ],
      "min": [
        0.0,
        0.009999999776482582
      ],
      "type": "VEC2"
    },
    {
      "bufferView": 0,
      "byteOffset": 423312,
      "componentType": 5125,
      "count": 372,
      "type": "SCALAR"
    },
    {
      "bufferView": 2,
      "byteOffset": 1696512,
      "componentType": 5126,
      "count": 192,
      "max": [
        2.126801013946533,
        -3.381335973739624,
        -0.56597501039505
      ],
      "min": [
        -1.8683229684829712,
        -3.5079259872436523,
        -0.6925650238990784
      ],
      "type": "VEC3"
    },
    {
      "bufferView": 2,
      "byteOffset": 1698816,
      "componentType": 5126,
      "count": 192,
      "max": [
        1.0,
        0.9951839447021484,
        0.9951839447021484
      ],
      "min": [
        -1.0,
        -0.9951839447021484,
        -0.9951839447021484
      ],
      "type": "VEC3"
    },
    {
      "bufferView": 1,
      "byteOffset": 565504,
      "componentType": 5126,
      "count": 192,
      "max": [
        1.0,
        1.0
      ],
      "min": [
        0.0,
        0.009999999776482582
      ],
      "type": "VEC2"
    },
    {
      "bufferView": 0,
      "byteOffset": 424800,
      "componentType": 5125,
      "count": 372,
      "type": "SCALAR"
    },
    {
      "bufferView": 2,
      "byteOffset": 1701120,
      "componentType": 5126,
      "count": 192,
      "max": [
        -1.7694900035858154,
        3.5296521186828613,
        -0.5624169707298279
      ],
      "min": [
        -1.9038820266723633,
        -3.5101470947265625,
        -0.6961209774017334
      ],
      "type": "VEC3"
    },
    {
      "bufferView": 2,
      "byteOffset": 1703424,
      "componentType": 5126,
      "count": 192,
      "max": [
        0.9952844381332397,
        0.9998687505722046,
        0.9950875639915466
      ],
      "min": [
        -0.9952844381332397,
        -1.0,
        -0.9950875639915466
      ],
      "type": "VEC3"
    },
    {
      "bufferView": 1,
      "byteOffset": 567040,
      "componentType": 5126,
      "count": 192,
      "max": [
        1.0,
        1.0
      ],
      "min": [
        0.0,
        0.009999999776482582
      ],
      "type": "VEC2"
    },
    {
      "bufferView": 0,
      "byteOffset": 426288,
      "componentType": 5125,
      "count": 372,
      "type": "SCALAR"
    }
  ],
  "asset": {
    "extras": {
      "author": "erg112 (https://sketchfab.com/erg112)",
      "license": "CC-BY-4.0 (http://creativecommons.org/licenses/by/4.0/)",
      "source": "https://sketchfab.com/3d-models/goal-post-monochrome-room-ec94b879d5284fa98a32205d2effef40",
      "title": "Goal Post monochrome room"
    },
    "generator": "Sketchfab-12.67.0",
    "version": "2.0"
  },
  "bufferViews": [
    {
      "buffer": 0,
      "byteLength": 427776,
      "name": "floatBufferViews",
      "target": 34963
    },
    {
      "buffer": 0,
      "byteLength": 568576,
      "byteOffset": 427776,
      "byteStride": 8,
      "name": "floatBufferViews",
      "target": 34962
    },
    {
      "buffer": 0,
      "byteLength": 1705728,
      "byteOffset": 996352,
      "byteStride": 12,
      "name": "floatBufferViews",
      "target": 34962
    }
  ],
  "buffers": [
    {
      "byteLength": 2702080,
      "uri": "scene.bin"
    }
  ],
  "materials": [
    {
      "doubleSided": true,
      "name": "None",
      "pbrMetallicRoughness": {
        "metallicFactor": 0.0,
        "roughnessFactor": 0.6
      }
    },
    {
      "doubleSided": true,
      "name": "metalpipe",
      "pbrMetallicRoughness": {
        "metallicFactor": 0.0,
        "roughnessFactor": 0.6
      }
    }
  ],
  "meshes": [
    {
      "name": "Cube_None_0",
      "primitives": [
        {
          "attributes": {
            "NORMAL": 1,
            "POSITION": 0,
            "TEXCOORD_0": 2
          },
          "indices": 3,
          "material": 0,
          "mode": 4
        }
      ]
    },
    {
      "name": "Cube_None_0",
      "primitives": [
        {
          "attributes": {
            "NORMAL": 5,
            "POSITION": 4,
            "TEXCOORD_0": 6
          },
          "indices": 7,
          "material": 0,
          "mode": 4
        }
      ]
    },
    {
      "name": "Cylinder_Cylinder_001_metalpipe_0",
      "primitives": [
        {
          "attributes": {
            "NORMAL": 9,
            "POSITION": 8,
            "TEXCOORD_0": 10
          },
          "indices": 11,
          "material": 1,
          "mode": 4
        }
      ]
    },
    {
      "name": "Cylinder_001_Cylinder_002_None_0",
      "primitives": [
        {
          "attributes": {
            "NORMAL": 13,
            "POSITION": 12,
            "TEXCOORD_0": 14
          },
          "indices": 15,
          "material": 0,
          "mode": 4
        }
      ]
    },
    {
      "name": "Cylinder_002_Cylinder_003_None_0",
      "primitives": [
        {
          "attributes": {
            "NORMAL": 17,
            "POSITION": 16,
            "TEXCOORD_0": 18
          },
          "indices": 19,
          "material": 0,
          "mode": 4
        }
      ]
    },
    {
      "name": "Cylinder_003_Cylinder_004_None_0",
      "primitives": [
        {
          "attributes": {
            "NORMAL": 21,
            "POSITION": 20,
            "TEXCOORD_0": 22
          },
          "indices": 23,
          "material": 0,
          "mode": 4
        }
      ]
    }
  ],
  "nodes": [
    {
      "children": [
        1
      ],
      "matrix": [
        1.0,
        0.0,
        0.0,
        0.0,
        0.0,
        2.220446049250313e-16,
        -1.0,
        0.0,
        0.0,
        1.0,
        2.220446049250313e-16,
        0.0,
        0.0,
        0.0,
        0.0,
        1.0
      ],
      "name": "Sketchfab_model"
    },
    {
      "children": [
        2
      ],
      "matrix": [
        1.0,
        0.0,
        0.0,
        0.0,
        0.0,
        0.0,
        1.0,
        0.0,
        0.0,
        -1.0,
        0.0,
        0.0,
        0.0,
        0.0,
        0.0,
        1.0
      ],
      "name": "02aedb3d5d2646928c7b16b8a2db6e98.fbx"
    },
    {
      "children": [
        3,
        6,
        8,
        10,
        12
      ],
      "name": "RootNode"
    },
    {
      "children": [
        4,
        5
      ],
      "matrix": [
        1.0,
        0.0,
        0.0,
        0.0,
        0.0,
        2.220446049250313e-16,
        -1.0,
        0.0,
        0.0,
        1.0,
        2.220446049250313e-16,
        0.0,
        0.0,
        0.0,
        0.0,
        1.0
      ],
      "name": "Cube"
    },
    {
      "mesh": 0,
      "name": "Cube_None_0"
    },
    {
      "mesh": 1,
      "name": "Cube_None_0"
    },
    {
      "children": [
        7
      ],
      "matrix": [
        1.0,
        0.0,
        0.0,
        0.0,
        0.0,
        2.220446049250313e-16,
        -1.0,
        0.0,
        0.0,
        1.0,
        2.220446049250313e-16,
        0.0,
        0.0,
        0.0,
        0.0,
        1.0
      ],
      "name": "Cylinder_Cylinder_001"
    },
    {
      "mesh": 2,
      "name": "Cylinder_Cylinder_001_metalpipe_0"
    },
    {
      "children": [
        9
      ],
      "matrix": [
        1.0,
        0.0,
        0.0,
        0.0,
        0.0,
        2.220446049250313e-16,
        -1.0,
        0.0,
        0.0,
        1.0,
        2.220446049250313e-16,
        0.0,
        0.0,
        0.0,
        0.0,
        1.0
      ],
      "name": "Cylinder_001_Cylinder_002"
    },
    {
      "mesh": 3,
      "name": "Cylinder_001_Cylinder_002_None_0"
    },
    {
      "children": [
        11
      ],
      "matrix": [
        1.0,
        0.0,
        0.0,
        0.0,
        0.0,
        2.220446049250313e-16,
        -1.0,
        0.0,
        0.0,
        1.0,
        2.220446049250313e-16,
        0.0,
        0.0,
        0.0,
        0.0,
        1.0
      ],
      "name": "Cylinder_002_Cylinder_003"
    },
    {
      "mesh": 4,
      "name": "Cylinder_002_Cylinder_003_None_0"
    },
    {
      "children": [
        13
      ],
      "matrix": [
        1.0,
        0.0,
        0.0,
        0.0,
        0.0,
        2.220446049250313e-16,
        -1.0,
        0.0,
        0.0,
        1.0,
        2.220446049250313e-16,
        0.0,
        0.0,
        0.0,
        0.0,
        1.0
      ],
      "name": "Cylinder_003_Cylinder_004"
    },
    {
      "mesh": 5,
      "name": "Cylinder_003_Cylinder_004_None_0"
    }
  ],
  "scene": 0,
  "scenes": [
    {
      "name": "Sketchfab_Scene",
      "nodes": [
        0
      ]
    }
  ]
}
